<mxfile host="Electron" modified="2023-10-15T18:05:26.232Z" agent="Mozilla/5.0 (Windows NT 10.0; Win64; x64) AppleWebKit/537.36 (KHTML, like Gecko) draw.io/22.0.2 Chrome/114.0.5735.289 Electron/25.8.4 Safari/537.36" etag="iUiXuECXPZdQkKgE6i9H" version="22.0.2" type="device">
  <diagram name="Page-1" id="hMReDBTZ49bJEvIx0Z6g">
    <mxGraphModel dx="1900" dy="887" grid="1" gridSize="10" guides="1" tooltips="1" connect="1" arrows="1" fold="1" page="0" pageScale="1" pageWidth="1100" pageHeight="850" math="0" shadow="0">
      <root>
        <mxCell id="0" />
        <mxCell id="1" parent="0" />
        <mxCell id="Jak6mkzkjm85wXUOc9jU-1" value="" style="rounded=0;whiteSpace=wrap;html=1;movable=1;resizable=1;rotatable=1;deletable=1;editable=1;locked=0;connectable=1;" parent="1" vertex="1">
          <mxGeometry x="150" y="80" width="800" height="880" as="geometry" />
        </mxCell>
        <mxCell id="Jak6mkzkjm85wXUOc9jU-6" value="&lt;font size=&quot;1&quot; style=&quot;&quot;&gt;&lt;b style=&quot;font-size: 24px;&quot;&gt;User / Customer&lt;/b&gt;&lt;/font&gt;" style="shape=umlActor;verticalLabelPosition=bottom;verticalAlign=top;html=1;outlineConnect=0;fillStyle=auto;strokeWidth=5;" parent="1" vertex="1">
          <mxGeometry x="-40" y="180" width="80" height="130" as="geometry" />
        </mxCell>
        <mxCell id="Jak6mkzkjm85wXUOc9jU-8" value="&lt;font style=&quot;font-size: 24px;&quot;&gt;&lt;b&gt;Existing User&lt;/b&gt;&lt;/font&gt;" style="shape=umlActor;verticalLabelPosition=bottom;verticalAlign=top;html=1;outlineConnect=0;fillStyle=auto;strokeWidth=5;" parent="1" vertex="1">
          <mxGeometry x="-140" y="470" width="80" height="130" as="geometry" />
        </mxCell>
        <mxCell id="Jak6mkzkjm85wXUOc9jU-9" value="&lt;font style=&quot;font-size: 24px;&quot;&gt;&lt;b&gt;New User&lt;/b&gt;&lt;/font&gt;" style="shape=umlActor;verticalLabelPosition=bottom;verticalAlign=top;html=1;outlineConnect=0;fillStyle=auto;strokeWidth=5;" parent="1" vertex="1">
          <mxGeometry x="50" y="470" width="80" height="130" as="geometry" />
        </mxCell>
        <mxCell id="Jak6mkzkjm85wXUOc9jU-11" value="" style="endArrow=classic;html=1;rounded=0;exitX=0.5;exitY=0;exitDx=0;exitDy=0;exitPerimeter=0;" parent="1" source="Jak6mkzkjm85wXUOc9jU-8" edge="1">
          <mxGeometry width="50" height="50" relative="1" as="geometry">
            <mxPoint x="510" y="520" as="sourcePoint" />
            <mxPoint x="-60" y="350" as="targetPoint" />
          </mxGeometry>
        </mxCell>
        <mxCell id="Jak6mkzkjm85wXUOc9jU-12" value="" style="endArrow=classic;html=1;rounded=0;exitX=0.5;exitY=0;exitDx=0;exitDy=0;exitPerimeter=0;" parent="1" source="Jak6mkzkjm85wXUOc9jU-9" edge="1">
          <mxGeometry width="50" height="50" relative="1" as="geometry">
            <mxPoint x="510" y="520" as="sourcePoint" />
            <mxPoint x="60" y="350" as="targetPoint" />
          </mxGeometry>
        </mxCell>
        <mxCell id="Jak6mkzkjm85wXUOc9jU-13" value="Register" style="ellipse;whiteSpace=wrap;html=1;fontSize=20;fontStyle=1;fillColor=#76608a;fontColor=#ffffff;strokeColor=#432D57;" parent="1" vertex="1">
          <mxGeometry x="210" y="170" width="140" height="110" as="geometry" />
        </mxCell>
        <mxCell id="Jak6mkzkjm85wXUOc9jU-14" value="" style="endArrow=none;html=1;rounded=0;exitX=1;exitY=0.3333333333333333;exitDx=0;exitDy=0;exitPerimeter=0;entryX=0;entryY=0.5;entryDx=0;entryDy=0;" parent="1" source="Jak6mkzkjm85wXUOc9jU-6" target="Jak6mkzkjm85wXUOc9jU-13" edge="1">
          <mxGeometry width="50" height="50" relative="1" as="geometry">
            <mxPoint x="510" y="370" as="sourcePoint" />
            <mxPoint x="560" y="320" as="targetPoint" />
          </mxGeometry>
        </mxCell>
        <mxCell id="Jak6mkzkjm85wXUOc9jU-17" value="&lt;font style=&quot;font-size: 24px;&quot;&gt;&lt;b&gt;Database&lt;/b&gt;&lt;/font&gt;" style="shape=umlActor;verticalLabelPosition=bottom;verticalAlign=top;html=1;outlineConnect=0;fillStyle=auto;strokeWidth=5;" parent="1" vertex="1">
          <mxGeometry x="1010" y="210" width="80" height="130" as="geometry" />
        </mxCell>
        <mxCell id="Jak6mkzkjm85wXUOc9jU-18" value="User Provide Information&amp;nbsp;" style="ellipse;whiteSpace=wrap;html=1;fontSize=20;fontStyle=1;fillColor=#76608a;fontColor=#ffffff;strokeColor=#432D57;" parent="1" vertex="1">
          <mxGeometry x="490" y="100" width="140" height="110" as="geometry" />
        </mxCell>
        <mxCell id="Jak6mkzkjm85wXUOc9jU-19" value="" style="endArrow=none;html=1;rounded=0;exitX=1;exitY=1;exitDx=0;exitDy=0;exitPerimeter=0;entryX=0;entryY=0.5;entryDx=0;entryDy=0;" parent="1" source="Jak6mkzkjm85wXUOc9jU-6" target="Jak6mkzkjm85wXUOc9jU-29" edge="1">
          <mxGeometry width="50" height="50" relative="1" as="geometry">
            <mxPoint x="510" y="370" as="sourcePoint" />
            <mxPoint x="210" y="495" as="targetPoint" />
          </mxGeometry>
        </mxCell>
        <mxCell id="Jak6mkzkjm85wXUOc9jU-20" value="" style="endArrow=open;endSize=12;dashed=1;html=1;rounded=0;exitX=1;exitY=0;exitDx=0;exitDy=0;entryX=0;entryY=0.5;entryDx=0;entryDy=0;" parent="1" source="Jak6mkzkjm85wXUOc9jU-13" target="Jak6mkzkjm85wXUOc9jU-18" edge="1">
          <mxGeometry x="-0.0151" y="16" width="160" relative="1" as="geometry">
            <mxPoint x="450" y="350" as="sourcePoint" />
            <mxPoint x="610" y="350" as="targetPoint" />
            <mxPoint as="offset" />
          </mxGeometry>
        </mxCell>
        <mxCell id="Jak6mkzkjm85wXUOc9jU-21" value="&amp;lt;&amp;lt;include&amp;gt;&amp;gt;" style="text;html=1;strokeColor=none;fillColor=none;align=center;verticalAlign=middle;whiteSpace=wrap;rounded=0;fontSize=19;rotation=-10;" parent="1" vertex="1">
          <mxGeometry x="370" y="140" width="60" height="30" as="geometry" />
        </mxCell>
        <mxCell id="Jak6mkzkjm85wXUOc9jU-23" value="Information Validation" style="ellipse;whiteSpace=wrap;html=1;fontSize=20;fontStyle=1;fillColor=#76608a;fontColor=#ffffff;strokeColor=#432D57;" parent="1" vertex="1">
          <mxGeometry x="750" y="180" width="140" height="110" as="geometry" />
        </mxCell>
        <mxCell id="Jak6mkzkjm85wXUOc9jU-24" value="" style="endArrow=none;html=1;rounded=0;entryX=0.25;entryY=0.1;entryDx=0;entryDy=0;entryPerimeter=0;exitX=1;exitY=0.5;exitDx=0;exitDy=0;" parent="1" source="Jak6mkzkjm85wXUOc9jU-23" target="Jak6mkzkjm85wXUOc9jU-17" edge="1">
          <mxGeometry width="50" height="50" relative="1" as="geometry">
            <mxPoint x="510" y="370" as="sourcePoint" />
            <mxPoint x="560" y="320" as="targetPoint" />
          </mxGeometry>
        </mxCell>
        <mxCell id="Jak6mkzkjm85wXUOc9jU-25" value="&amp;lt;&amp;lt;include&amp;gt;&amp;gt;" style="text;html=1;strokeColor=none;fillColor=none;align=center;verticalAlign=middle;whiteSpace=wrap;rounded=0;fontSize=19;rotation=15;" parent="1" vertex="1">
          <mxGeometry x="670" y="150" width="60" height="30" as="geometry" />
        </mxCell>
        <mxCell id="Jak6mkzkjm85wXUOc9jU-26" value="" style="endArrow=open;endSize=12;dashed=1;html=1;rounded=0;exitX=1.014;exitY=0.586;exitDx=0;exitDy=0;exitPerimeter=0;entryX=0;entryY=0;entryDx=0;entryDy=0;" parent="1" source="Jak6mkzkjm85wXUOc9jU-18" target="Jak6mkzkjm85wXUOc9jU-23" edge="1">
          <mxGeometry x="-0.3444" y="59" width="160" relative="1" as="geometry">
            <mxPoint x="450" y="340" as="sourcePoint" />
            <mxPoint x="610" y="340" as="targetPoint" />
            <mxPoint x="1" as="offset" />
          </mxGeometry>
        </mxCell>
        <mxCell id="Jak6mkzkjm85wXUOc9jU-28" value="" style="endArrow=none;html=1;rounded=0;entryX=0.5;entryY=0.5;entryDx=0;entryDy=0;entryPerimeter=0;exitX=1;exitY=0.5;exitDx=0;exitDy=0;" parent="1" source="Jak6mkzkjm85wXUOc9jU-29" target="Jak6mkzkjm85wXUOc9jU-17" edge="1">
          <mxGeometry width="50" height="50" relative="1" as="geometry">
            <mxPoint x="890" y="400" as="sourcePoint" />
            <mxPoint x="1040" y="303" as="targetPoint" />
          </mxGeometry>
        </mxCell>
        <mxCell id="Jak6mkzkjm85wXUOc9jU-29" value="Login" style="ellipse;whiteSpace=wrap;html=1;fontSize=20;fontStyle=1;fillColor=#76608a;fontColor=#ffffff;strokeColor=#432D57;" parent="1" vertex="1">
          <mxGeometry x="490" y="300" width="140" height="110" as="geometry" />
        </mxCell>
        <mxCell id="Jak6mkzkjm85wXUOc9jU-30" value="Email and Password Details" style="ellipse;whiteSpace=wrap;html=1;fontSize=20;fontStyle=1;fillColor=#76608a;fontColor=#ffffff;strokeColor=#432D57;" parent="1" vertex="1">
          <mxGeometry x="160" y="550" width="140" height="110" as="geometry" />
        </mxCell>
        <mxCell id="Jak6mkzkjm85wXUOc9jU-31" value="" style="endArrow=open;endSize=12;dashed=1;html=1;rounded=0;entryX=0.5;entryY=0;entryDx=0;entryDy=0;" parent="1" target="Jak6mkzkjm85wXUOc9jU-30" edge="1">
          <mxGeometry width="160" relative="1" as="geometry">
            <mxPoint x="560" y="430" as="sourcePoint" />
            <mxPoint x="610" y="340" as="targetPoint" />
            <Array as="points">
              <mxPoint x="230" y="430" />
            </Array>
          </mxGeometry>
        </mxCell>
        <mxCell id="Jak6mkzkjm85wXUOc9jU-32" value="Forgot Password" style="ellipse;whiteSpace=wrap;html=1;fontSize=20;fontStyle=1;fillColor=#76608a;fontColor=#ffffff;strokeColor=#432D57;" parent="1" vertex="1">
          <mxGeometry x="320" y="550" width="140" height="110" as="geometry" />
        </mxCell>
        <mxCell id="Jak6mkzkjm85wXUOc9jU-34" value="Authentication" style="ellipse;whiteSpace=wrap;html=1;fontSize=20;fontStyle=1;fillColor=#76608a;fontColor=#ffffff;strokeColor=#432D57;" parent="1" vertex="1">
          <mxGeometry x="490" y="550" width="140" height="110" as="geometry" />
        </mxCell>
        <mxCell id="Jak6mkzkjm85wXUOc9jU-35" value="" style="endArrow=open;endSize=12;dashed=1;html=1;rounded=0;entryX=0.5;entryY=0;entryDx=0;entryDy=0;" parent="1" target="Jak6mkzkjm85wXUOc9jU-34" edge="1">
          <mxGeometry width="160" relative="1" as="geometry">
            <mxPoint x="560" y="430" as="sourcePoint" />
            <mxPoint x="610" y="340" as="targetPoint" />
            <Array as="points" />
          </mxGeometry>
        </mxCell>
        <mxCell id="Jak6mkzkjm85wXUOc9jU-37" value="" style="endArrow=none;dashed=1;html=1;dashPattern=1 3;strokeWidth=2;rounded=0;exitX=0.5;exitY=1;exitDx=0;exitDy=0;" parent="1" source="Jak6mkzkjm85wXUOc9jU-29" edge="1">
          <mxGeometry width="50" height="50" relative="1" as="geometry">
            <mxPoint x="510" y="370" as="sourcePoint" />
            <mxPoint x="560" y="430" as="targetPoint" />
          </mxGeometry>
        </mxCell>
        <mxCell id="Jak6mkzkjm85wXUOc9jU-38" value="System&amp;nbsp; Access" style="ellipse;whiteSpace=wrap;html=1;fontSize=20;fontStyle=1;fillColor=#76608a;fontColor=#ffffff;strokeColor=#432D57;" parent="1" vertex="1">
          <mxGeometry x="650" y="550" width="140" height="110" as="geometry" />
        </mxCell>
        <mxCell id="Jak6mkzkjm85wXUOc9jU-39" value="" style="endArrow=open;endSize=12;dashed=1;html=1;rounded=0;entryX=0.5;entryY=0;entryDx=0;entryDy=0;" parent="1" target="Jak6mkzkjm85wXUOc9jU-38" edge="1">
          <mxGeometry width="160" relative="1" as="geometry">
            <mxPoint x="560" y="430" as="sourcePoint" />
            <mxPoint x="630" y="560" as="targetPoint" />
            <Array as="points">
              <mxPoint x="720" y="430" />
            </Array>
          </mxGeometry>
        </mxCell>
        <mxCell id="Jak6mkzkjm85wXUOc9jU-40" value="Session Management" style="ellipse;whiteSpace=wrap;html=1;fontSize=20;fontStyle=1;fillColor=#76608a;fontColor=#ffffff;strokeColor=#432D57;" parent="1" vertex="1">
          <mxGeometry x="800" y="550" width="140" height="110" as="geometry" />
        </mxCell>
        <mxCell id="Jak6mkzkjm85wXUOc9jU-41" value="" style="endArrow=open;endSize=12;dashed=1;html=1;rounded=0;entryX=0.5;entryY=0;entryDx=0;entryDy=0;" parent="1" target="Jak6mkzkjm85wXUOc9jU-40" edge="1">
          <mxGeometry width="160" relative="1" as="geometry">
            <mxPoint x="560" y="430" as="sourcePoint" />
            <mxPoint x="870" y="430" as="targetPoint" />
            <Array as="points">
              <mxPoint x="870" y="430" />
            </Array>
          </mxGeometry>
        </mxCell>
        <mxCell id="Jak6mkzkjm85wXUOc9jU-43" value="&amp;lt;&amp;lt;include&amp;gt;&amp;gt;" style="text;html=1;strokeColor=none;fillColor=none;align=center;verticalAlign=middle;whiteSpace=wrap;rounded=0;fontSize=19;rotation=0;" parent="1" vertex="1">
          <mxGeometry x="180" y="470" width="60" height="30" as="geometry" />
        </mxCell>
        <mxCell id="Jak6mkzkjm85wXUOc9jU-45" value="" style="endArrow=open;endSize=12;dashed=1;html=1;rounded=0;exitX=0.5;exitY=0;exitDx=0;exitDy=0;entryX=0.5;entryY=1;entryDx=0;entryDy=0;" parent="1" source="Jak6mkzkjm85wXUOc9jU-32" target="Jak6mkzkjm85wXUOc9jU-29" edge="1">
          <mxGeometry x="0.0639" y="111" width="160" relative="1" as="geometry">
            <mxPoint x="450" y="340" as="sourcePoint" />
            <mxPoint x="610" y="340" as="targetPoint" />
            <Array as="points">
              <mxPoint x="390" y="410" />
            </Array>
            <mxPoint as="offset" />
          </mxGeometry>
        </mxCell>
        <mxCell id="Jak6mkzkjm85wXUOc9jU-57" value="&amp;lt;&amp;lt;include&amp;gt;&amp;gt;" style="text;html=1;strokeColor=none;fillColor=none;align=center;verticalAlign=middle;whiteSpace=wrap;rounded=0;fontSize=19;rotation=0;" parent="1" vertex="1">
          <mxGeometry x="530" y="470" width="60" height="30" as="geometry" />
        </mxCell>
        <mxCell id="Jak6mkzkjm85wXUOc9jU-58" value="&amp;lt;&amp;lt;include&amp;gt;&amp;gt;" style="text;html=1;strokeColor=none;fillColor=none;align=center;verticalAlign=middle;whiteSpace=wrap;rounded=0;fontSize=19;rotation=0;" parent="1" vertex="1">
          <mxGeometry x="690" y="470" width="60" height="30" as="geometry" />
        </mxCell>
        <mxCell id="Jak6mkzkjm85wXUOc9jU-59" value="&amp;lt;&amp;lt;include&amp;gt;&amp;gt;" style="text;html=1;strokeColor=none;fillColor=none;align=center;verticalAlign=middle;whiteSpace=wrap;rounded=0;fontSize=19;rotation=0;" parent="1" vertex="1">
          <mxGeometry x="840" y="470" width="60" height="30" as="geometry" />
        </mxCell>
        <mxCell id="Jak6mkzkjm85wXUOc9jU-60" value="&amp;lt;&amp;lt;extend&amp;gt;&amp;gt;" style="text;html=1;strokeColor=none;fillColor=none;align=center;verticalAlign=middle;whiteSpace=wrap;rounded=0;fontSize=19;rotation=0;" parent="1" vertex="1">
          <mxGeometry x="360" y="470" width="60" height="30" as="geometry" />
        </mxCell>
        <mxCell id="4oJ3O7w7wRsfC4q_AW8c-2" value="&lt;font style=&quot;font-size: 24px;&quot;&gt;&lt;b&gt;Admin&lt;/b&gt;&lt;/font&gt;" style="shape=umlActor;verticalLabelPosition=bottom;verticalAlign=top;html=1;outlineConnect=0;fillStyle=auto;strokeWidth=5;" parent="1" vertex="1">
          <mxGeometry x="1010" y="730" width="80" height="130" as="geometry" />
        </mxCell>
        <mxCell id="DyOs6ZyJdZ4uom56nGGC-1" value="&lt;font style=&quot;font-size: 20px;&quot;&gt;View Customer Details&lt;/font&gt;" style="ellipse;whiteSpace=wrap;html=1;fontSize=20;fontStyle=1;fillColor=#76608a;fontColor=#ffffff;strokeColor=#432D57;" parent="1" vertex="1">
          <mxGeometry x="730" y="670" width="100" height="90" as="geometry" />
        </mxCell>
        <mxCell id="DyOs6ZyJdZ4uom56nGGC-2" value="&lt;font style=&quot;font-size: 20px;&quot;&gt;Add User&lt;/font&gt;" style="ellipse;whiteSpace=wrap;html=1;fontSize=20;fontStyle=1;fillColor=#76608a;fontColor=#ffffff;strokeColor=#432D57;" parent="1" vertex="1">
          <mxGeometry x="610" y="710" width="100" height="90" as="geometry" />
        </mxCell>
        <mxCell id="DyOs6ZyJdZ4uom56nGGC-3" value="&lt;font style=&quot;font-size: 20px;&quot;&gt;Update User&lt;/font&gt;" style="ellipse;whiteSpace=wrap;html=1;fontSize=20;fontStyle=1;fillColor=#76608a;fontColor=#ffffff;strokeColor=#432D57;" parent="1" vertex="1">
          <mxGeometry x="730" y="860" width="100" height="90" as="geometry" />
        </mxCell>
        <mxCell id="DyOs6ZyJdZ4uom56nGGC-4" value="&lt;font style=&quot;font-size: 20px;&quot;&gt;Delete &lt;br style=&quot;font-size: 20px;&quot;&gt;User&lt;/font&gt;" style="ellipse;whiteSpace=wrap;html=1;fontSize=20;fontStyle=1;fillColor=#76608a;fontColor=#ffffff;strokeColor=#432D57;" parent="1" vertex="1">
          <mxGeometry x="610" y="820" width="100" height="90" as="geometry" />
        </mxCell>
        <mxCell id="DyOs6ZyJdZ4uom56nGGC-6" value="" style="endArrow=none;html=1;rounded=0;exitX=0.25;exitY=0.1;exitDx=0;exitDy=0;exitPerimeter=0;entryX=1;entryY=0.5;entryDx=0;entryDy=0;" parent="1" source="4oJ3O7w7wRsfC4q_AW8c-2" target="DyOs6ZyJdZ4uom56nGGC-1" edge="1">
          <mxGeometry width="50" height="50" relative="1" as="geometry">
            <mxPoint x="520" y="530" as="sourcePoint" />
            <mxPoint x="570" y="480" as="targetPoint" />
          </mxGeometry>
        </mxCell>
        <mxCell id="DyOs6ZyJdZ4uom56nGGC-7" value="" style="endArrow=none;html=1;rounded=0;exitX=0;exitY=1;exitDx=0;exitDy=0;exitPerimeter=0;entryX=1;entryY=0.5;entryDx=0;entryDy=0;" parent="1" source="4oJ3O7w7wRsfC4q_AW8c-2" target="DyOs6ZyJdZ4uom56nGGC-3" edge="1">
          <mxGeometry width="50" height="50" relative="1" as="geometry">
            <mxPoint x="1040" y="753" as="sourcePoint" />
            <mxPoint x="780" y="734" as="targetPoint" />
          </mxGeometry>
        </mxCell>
        <mxCell id="DyOs6ZyJdZ4uom56nGGC-8" value="" style="endArrow=none;html=1;rounded=0;exitX=0;exitY=0.3333333333333333;exitDx=0;exitDy=0;exitPerimeter=0;entryX=1;entryY=0.5;entryDx=0;entryDy=0;" parent="1" source="4oJ3O7w7wRsfC4q_AW8c-2" target="DyOs6ZyJdZ4uom56nGGC-4" edge="1">
          <mxGeometry width="50" height="50" relative="1" as="geometry">
            <mxPoint x="1020" y="870" as="sourcePoint" />
            <mxPoint x="780" y="915" as="targetPoint" />
          </mxGeometry>
        </mxCell>
        <mxCell id="DyOs6ZyJdZ4uom56nGGC-9" value="" style="endArrow=none;html=1;rounded=0;exitX=0;exitY=0.3333333333333333;exitDx=0;exitDy=0;exitPerimeter=0;entryX=0.959;entryY=0.662;entryDx=0;entryDy=0;entryPerimeter=0;" parent="1" source="4oJ3O7w7wRsfC4q_AW8c-2" target="DyOs6ZyJdZ4uom56nGGC-2" edge="1">
          <mxGeometry width="50" height="50" relative="1" as="geometry">
            <mxPoint x="1020" y="783" as="sourcePoint" />
            <mxPoint x="660" y="875" as="targetPoint" />
          </mxGeometry>
        </mxCell>
        <mxCell id="26w2SCrqf-kyPpnvTF7X-1" value="" style="endArrow=none;html=1;rounded=0;exitX=0.5;exitY=0;exitDx=0;exitDy=0;exitPerimeter=0;entryX=1.002;entryY=0.661;entryDx=0;entryDy=0;entryPerimeter=0;" parent="1" source="4oJ3O7w7wRsfC4q_AW8c-2" target="Jak6mkzkjm85wXUOc9jU-29" edge="1">
          <mxGeometry width="50" height="50" relative="1" as="geometry">
            <mxPoint x="500" y="540" as="sourcePoint" />
            <mxPoint x="1050" y="450" as="targetPoint" />
            <Array as="points">
              <mxPoint x="1050" y="410" />
            </Array>
          </mxGeometry>
        </mxCell>
      </root>
    </mxGraphModel>
  </diagram>
</mxfile>
